0
SECTION
2
HEADER
9
$INSUNITS
70
4
9
$ACADVER
1
AC1014
9
$HANDSEED
5
FFFF
0
ENDSEC
0
SECTION
2
TABLES
0
TABLE
2
VPORT
5
8
100
AcDbSymbolTable
0
ENDTAB
0
TABLE
2
LTYPE
5
5
100
AcDbSymbolTable
0
LTYPE
5
14
100
AcDbSymbolTableRecord
100
AcDbLinetypeTableRecord
2
BYBLOCK
70
0
0
LTYPE
5
15
100
AcDbSymbolTableRecord
100
AcDbLinetypeTableRecord
2
BYLAYER
70
0
0
ENDTAB
0
TABLE
2
LAYER
5
2
100
AcDbSymbolTable
70
2
0
LAYER
5
50
100
AcDbSymbolTableRecord
100
AcDbLayerTableRecord
2
0
70
0
6
CONTINUOUS
0
ENDTAB
0
TABLE
2
STYLE
5
3
100
AcDbSymbolTable
70
1
0
STYLE
5
11
100
AcDbSymbolTableRecord
100
AcDbTextStyleTableRecord
2
STANDARD
70
0
0
ENDTAB
0
TABLE
2
VIEW
5
6
100
AcDbSymbolTable
70
0
0
ENDTAB
0
TABLE
2
UCS
5
7
100
AcDbSymbolTable
70
0
0
ENDTAB
0
TABLE
2
APPID
5
9
100
AcDbSymbolTable
70
2
0
APPID
5
12
100
AcDbSymbolTableRecord
100
AcDbRegAppTableRecord
2
ACAD
70
0
0
ENDTAB
0
TABLE
2
DIMSTYLE
5
A
100
AcDbSymbolTable
70
1
0
ENDTAB
0
TABLE
2
BLOCK_RECORD
5
1
100
AcDbSymbolTable
70
1
0
BLOCK_RECORD
5
1F
100
AcDbSymbolTableRecord
100
AcDbBlockTableRecord
2
*MODEL_SPACE
0
BLOCK_RECORD
5
1B
100
AcDbSymbolTableRecord
100
AcDbBlockTableRecord
2
*PAPER_SPACE
0
ENDTAB
0
ENDSEC
0
SECTION
2
BLOCKS
0
BLOCK
5
20
100
AcDbEntity
100
AcDbBlockBegin
2
*MODEL_SPACE
0
ENDBLK
5
21
100
AcDbEntity
100
AcDbBlockEnd
0
BLOCK
5
1C
100
AcDbEntity
100
AcDbBlockBegin
2
*PAPER_SPACE
0
ENDBLK
5
1D
100
AcDbEntity
100
AcDbBlockEnd
0
ENDSEC
0
SECTION
2
ENTITIES
0
CIRCLE
5
100
100
AcDbEntity
8
0
100
AcDbCircle
10
2.6645352591003757e-14
20
238
30
0
40
3.0000000000000004
210
0
220
-0
230
1
0
LWPOLYLINE
5
101
100
AcDbEntity
8
0
100
AcDbPolyline
90
8
70
1
43
0.0
10
142.99999999999923
20
139.5
10
140.69999999999933
20
139.5
42
0.41421356237309503
10
139.69999999999931
20
138.5
10
139.69999999999931
20
99.499999999999972
42
0.41421356237309503
10
140.69999999999931
20
98.499999999999972
10
142.99999999999929
20
98.499999999999972
42
0.41421356237309503
10
143.99999999999929
20
99.499999999999972
10
143.99999999999932
20
138.5
42
0.41421356237309503
0
LINE
5
102
100
AcDbEntity
8
0
100
AcDbLine
10
136.99998705302292
20
159
30
0
11
146.99999999999929
21
159
31
0
0
LINE
5
103
100
AcDbEntity
8
0
100
AcDbLine
10
151.99999999999932
20
154
30
0
11
151.99999999999932
21
83.999999999999972
31
0
0
LINE
5
104
100
AcDbEntity
8
0
100
AcDbLine
10
146.99999999999935
20
78.999999999999986
30
0
11
136.99999999999935
21
78.999999999999986
31
0
0
ARC
5
105
100
AcDbEntity
8
0
100
AcDbCircle
10
146.99999999999929
20
154
30
0
40
5.0000000000000355
210
0
220
-0
230
1
100
AcDbArc
50
0
51
90
0
ARC
5
106
100
AcDbEntity
8
0
100
AcDbCircle
10
146.99999999999935
20
83.999999999999972
30
0
40
4.9999999999999822
210
0
220
0
230
1
100
AcDbArc
50
-90
51
0
0
ARC
5
107
100
AcDbEntity
8
0
100
AcDbCircle
10
136.99999999999935
20
73.999999999999957
30
0
40
5.0000000000000266
210
0
220
-0
230
1
100
AcDbArc
50
90
51
180
0
CIRCLE
5
108
100
AcDbEntity
8
0
100
AcDbCircle
10
69.500000000000028
20
219.99999999999983
30
0
40
5.999999999999992
210
0
220
0
230
1
0
CIRCLE
5
109
100
AcDbEntity
8
0
100
AcDbCircle
10
52.500000000000028
20
220.00000000000023
30
0
40
6.0000000000000124
210
0
220
0
230
1
0
CIRCLE
5
110
100
AcDbEntity
8
0
100
AcDbCircle
10
61.000000000000007
20
188.30538122178606
30
0
40
5.9999999999999911
210
0
220
0
230
1
0
CIRCLE
5
111
100
AcDbEntity
8
0
100
AcDbCircle
10
122.0000000000003
20
237.99999999999977
30
0
40
3.0000000000000004
210
0
220
0
230
1
0
CIRCLE
5
112
100
AcDbEntity
8
0
100
AcDbCircle
10
0
20
0
30
0
40
3.0000000000000004
210
0
220
0
230
1
0
CIRCLE
5
113
100
AcDbEntity
8
0
100
AcDbCircle
10
122.00000000000006
20
1.3045120539345589e-14
30
0
40
3.0000000000000004
210
0
220
0
230
1
0
LINE
5
114
100
AcDbEntity
8
0
100
AcDbLine
10
29.00000000000005
20
-30.000000000000018
30
0
11
61.000000000000043
21
-30.000000000000018
31
0
0
LINE
5
115
100
AcDbEntity
8
0
100
AcDbLine
10
13.000000000000046
20
-10.000000000000018
30
0
11
6.9999999999999751
21
-10.000000000000032
31
0
0
ARC
5
116
100
AcDbEntity
8
0
100
AcDbCircle
10
7.0000000000001013
20
7.0000000000000959
30
0
40
17.000000000000128
210
0
220
0
230
1
100
AcDbArc
50
180
51
269.9999999999996
0
LINE
5
117
100
AcDbEntity
8
0
100
AcDbLine
10
21.000000000000046
20
-22.000000000000021
30
0
11
21.00000000000005
21
-18.000000000000018
31
0
0
ARC
5
118
100
AcDbEntity
8
0
100
AcDbCircle
10
29.00000000000005
20
-22.000000000000021
30
0
40
8.0000000000000036
210
0
220
0
230
1
100
AcDbArc
50
180
51
270
0
ARC
5
119
100
AcDbEntity
8
0
100
AcDbCircle
10
13.00000000000005
20
-18.000000000000018
30
0
40
8
210
0
220
-0
230
1
100
AcDbArc
50
0
51
90.000000000000014
0
LINE
5
120
100
AcDbEntity
8
0
100
AcDbLine
10
29.00000000000005
20
268.00000000000006
30
0
11
61.00000000000005
21
268.00000000000006
31
0
0
ARC
5
121
100
AcDbEntity
8
0
100
AcDbCircle
10
29.00000000000005
20
260
30
0
40
8.0000000000000426
210
0
220
-0
230
1
100
AcDbArc
50
90
51
180
0
LINE
5
122
100
AcDbEntity
8
0
100
AcDbLine
10
21.000000000000046
20
260
30
0
11
21.00000000000005
21
256
31
0
0
ARC
5
123
100
AcDbEntity
8
0
100
AcDbCircle
10
13.00000000000005
20
256
30
0
40
7.9999999999999716
210
0
220
0
230
1
100
AcDbArc
50
-90
51
0
0
LINE
5
124
100
AcDbEntity
8
0
100
AcDbLine
10
13.000000000000046
20
248.00000000000006
30
0
11
6.9999999999999751
21
248.00000000000006
31
0
0
ARC
5
125
100
AcDbEntity
8
0
100
AcDbCircle
10
7.0000000000001084
20
230.99999999999966
30
0
40
17.000000000000384
210
0
220
0
230
1
100
AcDbArc
50
90.000000000000455
51
180
0
LINE
5
126
100
AcDbEntity
8
0
100
AcDbLine
10
92.999999999999943
20
268.00000000000006
30
0
11
60.999999999999943
21
268.00000000000006
31
0
0
ARC
5
127
100
AcDbEntity
8
0
100
AcDbCircle
10
92.999999999999943
20
260
30
0
40
8.0000000000000071
210
0
220
-0
230
1
100
AcDbArc
50
0
51
90
0
LINE
5
128
100
AcDbEntity
8
0
100
AcDbLine
10
100.99999999999994
20
260
30
0
11
100.99999999999994
21
256
31
0
0
ARC
5
129
100
AcDbEntity
8
0
100
AcDbCircle
10
108.99999999999994
20
256
30
0
40
8.0000000000000071
210
0
220
0
230
1
100
AcDbArc
50
180
51
270
0
LINE
5
130
100
AcDbEntity
8
0
100
AcDbLine
10
108.99999999999994
20
248.00000000000006
30
0
11
115.00000000000001
21
248.00000000000006
31
0
0
LINE
5
131
100
AcDbEntity
8
0
100
AcDbLine
10
131.99999999998087
20
230.99989999999968
30
0
11
132.00000000000003
21
230.99999999999997
31
0
0
LINE
5
132
100
AcDbEntity
8
0
100
AcDbLine
10
109.00000000000003
20
-10.000000000000004
30
0
11
115.00000000000009
21
-10.000000000000016
31
0
0
ARC
5
133
100
AcDbEntity
8
0
100
AcDbCircle
10
109.00000000000003
20
-18.000000000000004
30
0
40
8
210
0
220
-0
230
1
100
AcDbArc
50
90
51
180
0
ARC
5
134
100
AcDbEntity
8
0
100
AcDbCircle
10
93.000000000000028
20
-22.000000000000011
30
0
40
7.9999999999999982
210
0
220
0
230
1
100
AcDbArc
50
-90
51
0
0
LINE
5
135
100
AcDbEntity
8
0
100
AcDbLine
10
101.00000000000003
20
-22.000000000000011
30
0
11
101.00000000000001
21
-18.000000000000007
31
0
0
LINE
5
136
100
AcDbEntity
8
0
100
AcDbLine
10
93.000000000000028
20
-30.000000000000007
30
0
11
61.000000000000028
21
-30.000000000000018
31
0
0
ARC
5
137
100
AcDbEntity
8
0
100
AcDbCircle
10
136.99998705302292
20
164
30
0
40
5.0000000000000044
210
0
220
0
230
1
100
AcDbArc
50
179.99998893382877
51
270
0
ARC
5
138
100
AcDbEntity
8
0
100
AcDbCircle
10
115.00000000000028
20
230.99999999999972
30
0
40
16.999999999999993
210
-0
220
0
230
1
100
AcDbArc
50
0
51
89.999988928251469
0
ARC
5
139
100
AcDbEntity
8
0
100
AcDbCircle
10
114.9999999999993
20
7.0000000000000107
30
0
40
17.000000000000028
210
0
220
0
230
1
100
AcDbArc
50
270.00000000000068
51
360
0
LINE
5
140
100
AcDbEntity
8
0
100
AcDbLine
10
-10.000000000000025
20
230.99999999999994
30
0
11
-10.000000000000025
21
7.0000000000000631
31
0
0
LINE
5
141
100
AcDbEntity
8
0
100
AcDbLine
10
132.00000000000028
20
230.99999999999966
30
0
11
131.99998705302301
21
164.00000096619235
31
0
0
LINE
5
142
100
AcDbEntity
8
0
100
AcDbLine
10
131.99999999999932
20
73.999999999999957
30
0
11
131.99999999999935
21
6.9999999999994689
31
0
0
ENDSEC
0
SECTION
2
OBJECTS
0
DICTIONARY
5
C
100
AcDbDictionary
3
ACAD_GROUP
350
D
3
ACAD_MLINESTYLE
350
17
0
DICTIONARY
5
D
100
AcDbDictionary
0
DICTIONARY
5
1A
330
C
100
AcDbDictionary
0
DICTIONARY
5
17
100
AcDbDictionary
0
ENDSEC
0
EOF
