0
SECTION
2
HEADER
9
$INSUNITS
70
4
9
$ACADVER
1
AC1014
9
$HANDSEED
5
FFFF
0
ENDSEC
0
SECTION
2
TABLES
0
TABLE
2
VPORT
5
8
100
AcDbSymbolTable
0
ENDTAB
0
TABLE
2
LTYPE
5
5
100
AcDbSymbolTable
0
LTYPE
5
14
100
AcDbSymbolTableRecord
100
AcDbLinetypeTableRecord
2
BYBLOCK
70
0
0
LTYPE
5
15
100
AcDbSymbolTableRecord
100
AcDbLinetypeTableRecord
2
BYLAYER
70
0
0
ENDTAB
0
TABLE
2
LAYER
5
2
100
AcDbSymbolTable
70
2
0
LAYER
5
50
100
AcDbSymbolTableRecord
100
AcDbLayerTableRecord
2
0
70
0
6
CONTINUOUS
0
ENDTAB
0
TABLE
2
STYLE
5
3
100
AcDbSymbolTable
70
1
0
STYLE
5
11
100
AcDbSymbolTableRecord
100
AcDbTextStyleTableRecord
2
STANDARD
70
0
0
ENDTAB
0
TABLE
2
VIEW
5
6
100
AcDbSymbolTable
70
0
0
ENDTAB
0
TABLE
2
UCS
5
7
100
AcDbSymbolTable
70
0
0
ENDTAB
0
TABLE
2
APPID
5
9
100
AcDbSymbolTable
70
2
0
APPID
5
12
100
AcDbSymbolTableRecord
100
AcDbRegAppTableRecord
2
ACAD
70
0
0
ENDTAB
0
TABLE
2
DIMSTYLE
5
A
100
AcDbSymbolTable
70
1
0
ENDTAB
0
TABLE
2
BLOCK_RECORD
5
1
100
AcDbSymbolTable
70
1
0
BLOCK_RECORD
5
1F
100
AcDbSymbolTableRecord
100
AcDbBlockTableRecord
2
*MODEL_SPACE
0
BLOCK_RECORD
5
1B
100
AcDbSymbolTableRecord
100
AcDbBlockTableRecord
2
*PAPER_SPACE
0
ENDTAB
0
ENDSEC
0
SECTION
2
BLOCKS
0
BLOCK
5
20
100
AcDbEntity
100
AcDbBlockBegin
2
*MODEL_SPACE
0
ENDBLK
5
21
100
AcDbEntity
100
AcDbBlockEnd
0
BLOCK
5
1C
100
AcDbEntity
100
AcDbBlockBegin
2
*PAPER_SPACE
0
ENDBLK
5
1D
100
AcDbEntity
100
AcDbBlockEnd
0
ENDSEC
0
SECTION
2
ENTITIES
0
LWPOLYLINE
5
100
100
AcDbEntity
8
0
100
AcDbPolyline
90
18
70
1
43
0.0
10
-56.330339887498553
20
55.139320225002052
10
32.434906282703551
20
10.756697139900883
42
0.026071286047074545
10
32.434906282703544
20
4.2433028600992539
10
-56.330339887498546
20
-40.139320225001676
42
0.99999999999999989
10
-33.96966011250052
20
-84.860679774997436
10
54.795586057700874
20
-40.478056689896491
10
65.758761820579281
20
-34.996468808457387
42
0.3094928835965351
10
123.94123817942172
20
-34.996468808457436
10
134.9044139423001
20
-40.47805668989654
10
223.66966011250142
20
-84.860679774997465
42
0.99999999999999989
10
246.03033988749945
20
-40.139320225001725
10
157.2650937172975
20
4.2433028600991758
42
0.026071286047075613
10
157.26509371729747
20
10.756697139900933
10
246.03033988749945
20
55.139320225002024
42
1.0000000074505806
10
223.6696601125015
20
99.860679774997735
10
134.9044139422999
20
55.478056689896519
42
0.36255538106294766
10
54.795586057701101
20
55.478056689896498
10
-33.969660112500542
20
99.860679774997777
42
0.99999999999999989
0
LINE
5
101
100
AcDbEntity
8
0
100
AcDbLine
10
-51.549999999999585
20
82.899999999999977
30
0
11
-36.749999999999574
21
82.899999999999977
31
0
0
LINE
5
102
100
AcDbEntity
8
0
100
AcDbLine
10
-35.749999999999574
20
81.899999999999977
30
0
11
-35.749999999999574
21
73.09999999999998
31
0
0
LINE
5
103
100
AcDbEntity
8
0
100
AcDbLine
10
-36.749999999999574
20
72.09999999999998
30
0
11
-51.549999999999585
21
72.09999999999998
31
0
0
LINE
5
104
100
AcDbEntity
8
0
100
AcDbLine
10
-52.549999999999585
20
73.09999999999998
30
0
11
-52.549999999999585
21
81.899999999999977
31
0
0
ARC
5
105
100
AcDbEntity
8
0
100
AcDbCircle
10
-51.549999999999585
20
81.899999999999977
30
0
40
0.99999999999999645
210
0
220
-0
230
1
100
AcDbArc
50
90
51
180
0
ARC
5
106
100
AcDbEntity
8
0
100
AcDbCircle
10
-36.749999999999588
20
81.899999999999977
30
0
40
1.0000000000000009
210
-0
220
0
230
1
100
AcDbArc
50
0
51
90
0
ARC
5
107
100
AcDbEntity
8
0
100
AcDbCircle
10
-36.749999999999588
20
73.09999999999998
30
0
40
0.99999999999999645
210
0
220
0
230
1
100
AcDbArc
50
-90
51
0
0
ARC
5
108
100
AcDbEntity
8
0
100
AcDbCircle
10
-51.549999999999592
20
73.099999999999966
30
0
40
0.99999999999998757
210
0
220
0
230
1
100
AcDbArc
50
180
51
270.0000000000008
0
LINE
5
109
100
AcDbEntity
8
0
100
AcDbLine
10
-51.549999999999585
20
-57.100000000000016
30
0
11
-36.749999999999574
21
-57.100000000000016
31
0
0
LINE
5
110
100
AcDbEntity
8
0
100
AcDbLine
10
-35.749999999999574
20
-58.100000000000016
30
0
11
-35.749999999999574
21
-66.90000000000002
31
0
0
LINE
5
111
100
AcDbEntity
8
0
100
AcDbLine
10
-36.749999999999574
20
-67.90000000000002
30
0
11
-51.549999999999585
21
-67.90000000000002
31
0
0
LINE
5
112
100
AcDbEntity
8
0
100
AcDbLine
10
-52.549999999999585
20
-66.90000000000002
30
0
11
-52.549999999999585
21
-58.100000000000016
31
0
0
ARC
5
113
100
AcDbEntity
8
0
100
AcDbCircle
10
-51.549999999999585
20
-58.100000000000016
30
0
40
0.99999999999999645
210
0
220
-0
230
1
100
AcDbArc
50
90
51
180
0
ARC
5
114
100
AcDbEntity
8
0
100
AcDbCircle
10
-36.749999999999574
20
-58.100000000000016
30
0
40
1.0000000000000053
210
-0
220
0
230
1
100
AcDbArc
50
0
51
90
0
ARC
5
115
100
AcDbEntity
8
0
100
AcDbCircle
10
-36.749999999999574
20
-66.90000000000002
30
0
40
1.0000000000000053
210
0
220
0
230
1
100
AcDbArc
50
-90.00000000000081
51
0
0
ARC
5
116
100
AcDbEntity
8
0
100
AcDbCircle
10
-51.549999999999585
20
-66.90000000000002
30
0
40
0.99999999999999645
210
0
220
0
230
1
100
AcDbArc
50
180
51
270
0
LINE
5
117
100
AcDbEntity
8
0
100
AcDbLine
10
241.24999999999957
20
-57.100000000000016
30
0
11
226.44999999999956
21
-57.100000000000016
31
0
0
LINE
5
118
100
AcDbEntity
8
0
100
AcDbLine
10
225.44999999999956
20
-58.100000000000016
30
0
11
225.44999999999956
21
-66.90000000000002
31
0
0
LINE
5
119
100
AcDbEntity
8
0
100
AcDbLine
10
226.44999999999956
20
-67.90000000000002
30
0
11
241.24999999999957
21
-67.90000000000002
31
0
0
LINE
5
120
100
AcDbEntity
8
0
100
AcDbLine
10
242.2499999999996
20
-66.90000000000002
30
0
11
242.2499999999996
21
-58.100000000000016
31
0
0
ARC
5
121
100
AcDbEntity
8
0
100
AcDbCircle
10
226.44999999999959
20
-58.100000000000016
30
0
40
0.99999999999999645
210
0
220
-0
230
1
100
AcDbArc
50
90
51
180
0
ARC
5
122
100
AcDbEntity
8
0
100
AcDbCircle
10
241.24999999999957
20
-58.100000000000016
30
0
40
1.0000000000000142
210
0
220
-0
230
1
100
AcDbArc
50
0
51
90
0
ARC
5
123
100
AcDbEntity
8
0
100
AcDbCircle
10
241.24999999999957
20
-66.900000000000006
30
0
40
0.99999999999999645
210
0
220
0
230
1
100
AcDbArc
50
-90
51
0
0
ARC
5
124
100
AcDbEntity
8
0
100
AcDbCircle
10
226.44999999999959
20
-66.900000000000006
30
0
40
1.0000000000000142
210
0
220
0
230
1
100
AcDbArc
50
180
51
270
0
LINE
5
125
100
AcDbEntity
8
0
100
AcDbLine
10
225.44999999999956
20
81.899999999999977
30
0
11
225.44999999999956
21
73.099999999999994
31
0
0
LINE
5
126
100
AcDbEntity
8
0
100
AcDbLine
10
241.24999999999957
20
82.899999999999949
30
0
11
226.44999999999956
21
82.899999999999949
31
0
0
LINE
5
127
100
AcDbEntity
8
0
100
AcDbLine
10
242.2499999999996
20
73.099999999999994
30
0
11
242.2499999999996
21
81.899999999999977
31
0
0
LINE
5
128
100
AcDbEntity
8
0
100
AcDbLine
10
226.44999999999956
20
72.099999999999966
30
0
11
241.24999999999957
21
72.099999999999966
31
0
0
ARC
5
129
100
AcDbEntity
8
0
100
AcDbCircle
10
226.44999999999956
20
81.899999999999963
30
0
40
0.99999999999999645
210
0
220
-0
230
1
100
AcDbArc
50
90
51
180
0
ARC
5
130
100
AcDbEntity
8
0
100
AcDbCircle
10
241.24999999999957
20
81.899999999999963
30
0
40
1.0000000000000853
210
-0
220
0
230
1
100
AcDbArc
50
0
51
90
0
ARC
5
131
100
AcDbEntity
8
0
100
AcDbCircle
10
241.24999999999957
20
73.09999999999998
30
0
40
0.99999999999999645
210
0
220
0
230
1
100
AcDbArc
50
-90
51
0
0
ARC
5
132
100
AcDbEntity
8
0
100
AcDbCircle
10
226.44999999999959
20
73.100000000000023
30
0
40
1.0000000000000497
210
0
220
0
230
1
100
AcDbArc
50
180
51
269.99999999999835
0
CIRCLE
5
133
100
AcDbEntity
8
0
100
AcDbCircle
10
94.850000000000449
20
47.499999999999901
30
0
40
4
210
0
220
0
230
1
0
CIRCLE
5
134
100
AcDbEntity
8
0
100
AcDbCircle
10
60.20898384862295
20
27.499999999999829
30
0
40
4
210
0
220
0
230
1
0
CIRCLE
5
135
100
AcDbEntity
8
0
100
AcDbCircle
10
60.208983848623006
20
-12.500000000000151
30
0
40
4
210
0
220
0
230
1
0
CIRCLE
5
136
100
AcDbEntity
8
0
100
AcDbCircle
10
94.850000000000591
20
-32.500000000000107
30
0
40
4
210
0
220
0
230
1
0
CIRCLE
5
137
100
AcDbEntity
8
0
100
AcDbCircle
10
129.49101615137809
20
-12.500000000000053
30
0
40
4
210
0
220
0
230
1
0
CIRCLE
5
138
100
AcDbEntity
8
0
100
AcDbCircle
10
129.49101615137803
20
27.499999999999922
30
0
40
4
210
0
220
0
230
1
0
LWPOLYLINE
5
139
100
AcDbEntity
8
0
100
AcDbPolyline
90
4
70
1
43
0.0
10
85.850000000000477
20
25.360571099491622
10
85.850000000000477
20
53.12071897723655
42
0.16590814577551175
10
59.841298426802695
20
38.104588122678109
10
83.882291701742474
20
24.224514183805709
42
-0.028424369673840582
0
LWPOLYLINE
5
140
100
AcDbEntity
8
0
100
AcDbPolyline
90
4
70
1
43
0.0
10
105.81770829825854
20
24.224514183805734
10
129.85870157319829
20
38.104588122678223
42
0.16590814577551166
10
103.85000000000048
20
53.120718977236578
10
103.85000000000051
20
25.360571099491665
42
-0.028424369673841026
0
LWPOLYLINE
5
141
100
AcDbEntity
8
0
100
AcDbPolyline
90
4
70
1
43
0.0
10
50.841298426802773
20
-7.5161308545585364
10
74.882291701742503
20
6.3639430843139788
42
-0.028424369673840582
10
74.882291701742503
20
8.6360569156858027
10
50.841298426802737
20
22.51613085455821
42
0.16590814577551158
0
LWPOLYLINE
5
142
100
AcDbEntity
8
0
100
AcDbPolyline
90
4
70
1
43
0.0
10
114.81770829825855
20
6.363943084313969
10
138.85870157319835
20
-7.5161308545584102
42
0.16590814577551152
10
138.85870157319832
20
22.516130854558327
10
114.81770829825855
20
8.6360569156858311
42
-0.028424369673841026
0
LINE
5
143
100
AcDbEntity
8
0
100
AcDbLine
10
54.795586057700874
20
-40.478056689896491
30
0
11
65.758761820579281
21
-34.996468808457387
31
0
0
LINE
5
144
100
AcDbEntity
8
0
100
AcDbLine
10
123.94123817942172
20
-34.996468808457436
30
0
11
134.9044139423001
21
-40.47805668989654
31
0
0
ENDSEC
0
SECTION
2
OBJECTS
0
DICTIONARY
5
C
100
AcDbDictionary
3
ACAD_GROUP
350
D
3
ACAD_MLINESTYLE
350
17
0
DICTIONARY
5
D
100
AcDbDictionary
0
DICTIONARY
5
1A
330
C
100
AcDbDictionary
0
DICTIONARY
5
17
100
AcDbDictionary
0
ENDSEC
0
EOF
