0
SECTION
2
HEADER
9
$INSUNITS
70
4
9
$ACADVER
1
AC1014
9
$HANDSEED
5
FFFF
0
ENDSEC
0
SECTION
2
TABLES
0
TABLE
2
VPORT
5
8
100
AcDbSymbolTable
0
ENDTAB
0
TABLE
2
LTYPE
5
5
100
AcDbSymbolTable
0
LTYPE
5
14
100
AcDbSymbolTableRecord
100
AcDbLinetypeTableRecord
2
BYBLOCK
70
0
0
LTYPE
5
15
100
AcDbSymbolTableRecord
100
AcDbLinetypeTableRecord
2
BYLAYER
70
0
0
ENDTAB
0
TABLE
2
LAYER
5
2
100
AcDbSymbolTable
70
2
0
LAYER
5
50
100
AcDbSymbolTableRecord
100
AcDbLayerTableRecord
2
0
70
0
6
CONTINUOUS
0
ENDTAB
0
TABLE
2
STYLE
5
3
100
AcDbSymbolTable
70
1
0
STYLE
5
11
100
AcDbSymbolTableRecord
100
AcDbTextStyleTableRecord
2
STANDARD
70
0
0
ENDTAB
0
TABLE
2
VIEW
5
6
100
AcDbSymbolTable
70
0
0
ENDTAB
0
TABLE
2
UCS
5
7
100
AcDbSymbolTable
70
0
0
ENDTAB
0
TABLE
2
APPID
5
9
100
AcDbSymbolTable
70
2
0
APPID
5
12
100
AcDbSymbolTableRecord
100
AcDbRegAppTableRecord
2
ACAD
70
0
0
ENDTAB
0
TABLE
2
DIMSTYLE
5
A
100
AcDbSymbolTable
70
1
0
ENDTAB
0
TABLE
2
BLOCK_RECORD
5
1
100
AcDbSymbolTable
70
1
0
BLOCK_RECORD
5
1F
100
AcDbSymbolTableRecord
100
AcDbBlockTableRecord
2
*MODEL_SPACE
0
BLOCK_RECORD
5
1B
100
AcDbSymbolTableRecord
100
AcDbBlockTableRecord
2
*PAPER_SPACE
0
ENDTAB
0
ENDSEC
0
SECTION
2
BLOCKS
0
BLOCK
5
20
100
AcDbEntity
100
AcDbBlockBegin
2
*MODEL_SPACE
0
ENDBLK
5
21
100
AcDbEntity
100
AcDbBlockEnd
0
BLOCK
5
1C
100
AcDbEntity
100
AcDbBlockBegin
2
*PAPER_SPACE
0
ENDBLK
5
1D
100
AcDbEntity
100
AcDbBlockEnd
0
ENDSEC
0
SECTION
2
ENTITIES
0
CIRCLE
5
100
100
AcDbEntity
8
0
100
AcDbCircle
10
-20.499999999999972
20
154.50000047683713
30
0
40
3.25
210
0
220
0
230
1
0
LWPOLYLINE
5
101
100
AcDbEntity
8
0
100
AcDbPolyline
90
18
70
1
43
0.0
10
-67.000000000000625
20
-75.24166927396405
10
-66.999999999998906
20
138.0737149911364
42
-0.19631456527355298
10
-61.282856857065973
20
152.07371499117332
10
-50.082856857061138
20
163.5000004768371
42
-0.20151275462388396
10
-35.799999999966865
20
169.50000047683713
10
-6.9999999999989111
20
169.50000047683713
42
-0.41421356237309492
10
3.0000000000011076
20
159.5000004768371
10
3.0000000000010951
20
124.85898432545955
42
0.13165249758739581
10
5.6794919243123214
20
114.85898432545955
10
6.8205080756888137
20
112.88268637901872
42
-0.13165249758739569
10
9.5000000000000142
20
102.88268637901882
10
9.4999999999999414
20
-151.49999952316296
42
-0.41421356237309503
10
-0.50000000000005596
20
-161.49999952316296
10
-30.500000000000028
20
-161.49999952316296
42
-0.41421356237309503
10
-40.500000000000007
20
-151.49999952316298
10
-40.500000000000007
20
-131.85898337178551
42
0.13165249758739581
10
-43.179491924311165
20
-121.85898337178574
10
-64.320508075689389
20
-85.241669273964249
42
-0.13165249758739783
0
LWPOLYLINE
5
102
100
AcDbEntity
8
0
100
AcDbPolyline
90
8
70
1
43
0.0
10
-51.549999999999585
20
82.900000476837121
10
-36.749999999999574
20
82.900000476837121
42
-0.41421356237309503
10
-35.749999999999574
20
81.900000476837121
10
-35.749999999999574
20
73.100000476837124
42
-0.41421356237309503
10
-36.749999999999574
20
72.100000476837124
10
-51.549999999999585
20
72.100000476837124
42
-0.41421356237309503
10
-52.549999999999585
20
73.100000476837124
10
-52.549999999999585
20
81.900000476837121
42
-0.41421356237309503
0
LWPOLYLINE
5
103
100
AcDbEntity
8
0
100
AcDbPolyline
90
8
70
1
43
0.0
10
-51.549999999999585
20
-57.099999523162872
10
-36.749999999999574
20
-57.099999523162872
42
-0.41421356237309503
10
-35.749999999999574
20
-58.099999523162865
10
-35.749999999999574
20
-66.899999523162876
42
-0.41421356237309503
10
-36.749999999999574
20
-67.899999523162876
10
-51.549999999999585
20
-67.899999523162876
42
-0.41421356237309503
10
-52.549999999999585
20
-66.899999523162876
10
-52.549999999999585
20
-58.099999523162865
42
-0.41421356237309503
0
LWPOLYLINE
5
104
100
AcDbEntity
8
0
100
AcDbPolyline
90
20
70
1
43
0.0
10
-26.385128810758921
20
123.31990220906368
42
1.991158459556162
10
-37.614871189239011
20
123.31990220906368
42
-0.16136713395034122
10
-37.416995644844718
20
122.72274531366749
10
-37.416995644844718
20
120.10053899307343
42
-0.41421356237309631
10
-38.416995644844725
20
119.10053899307343
10
-44.416995644844725
20
119.10053899307343
42
-0.41421356237309503
10
-45.416995644844718
20
120.10053899307343
10
-45.416995644844718
20
121.10053899307344
42
-0.41421356237309503
10
-44.416995644844725
20
122.10053899307343
10
-42.081901539534044
20
122.10053899307343
42
0.54055768282363448
10
-41.165365035939949
20
123.50049003705196
42
-1.5274362106569246
10
-22.834634964057983
20
123.50049003705196
42
0.54055768282363448
10
-21.918098460463888
20
122.10053899307343
10
-19.583004355153211
20
122.10053899307343
42
-0.41421356237309503
10
-18.583004355153214
20
121.10053899307344
10
-18.583004355153214
20
120.10053899307343
42
-0.41421356237309503
10
-19.583004355153211
20
119.10053899307343
10
-25.583004355153211
20
119.10053899307343
42
-0.41421356237309631
10
-26.583004355153214
20
120.10053899307343
10
-26.583004355153207
20
122.72274531366749
42
-0.16136713395034122
0
LWPOLYLINE
5
105
100
AcDbEntity
8
0
100
AcDbPolyline
90
4
70
1
43
0.0
10
-32
20
12.750000476837132
10
-30.299999999999958
20
12.75000047683713
42
-0.99999999999999989
10
-30.300000000000047
20
6.2500004768371049
10
-32
20
6.2500004768371031
42
-0.99999999999999989
0
ARC
5
106
100
AcDbEntity
8
0
100
AcDbCircle
10
-30.300000000000004
20
9.5000004768371173
30
2.1895288505075267e-46
40
3.2500000000000107
210
-4.7401874186832915e-61
220
-3.4857533247774383e-47
230
1
100
AcDbArc
50
245.57041190136826
51
247.38013505195957
0
LWPOLYLINE
5
107
100
AcDbEntity
8
0
100
AcDbPolyline
90
4
70
1
43
0.0
10
-29.5
20
-143.24999952316298
10
-27.799999999999997
20
-143.24999952316298
42
-0.99999999999999989
10
-27.799999999999997
20
-149.74999952316298
10
-29.5
20
-149.74999952316298
42
-0.99999999999999989
0
ENDSEC
0
SECTION
2
OBJECTS
0
DICTIONARY
5
C
100
AcDbDictionary
3
ACAD_GROUP
350
D
3
ACAD_MLINESTYLE
350
17
0
DICTIONARY
5
D
100
AcDbDictionary
0
DICTIONARY
5
1A
330
C
100
AcDbDictionary
0
DICTIONARY
5
17
100
AcDbDictionary
0
ENDSEC
0
EOF
