0
SECTION
2
HEADER
9
$INSUNITS
70
4
9
$ACADVER
1
AC1014
9
$HANDSEED
5
FFFF
0
ENDSEC
0
SECTION
2
TABLES
0
TABLE
2
VPORT
5
8
100
AcDbSymbolTable
0
ENDTAB
0
TABLE
2
LTYPE
5
5
100
AcDbSymbolTable
0
LTYPE
5
14
100
AcDbSymbolTableRecord
100
AcDbLinetypeTableRecord
2
BYBLOCK
70
0
0
LTYPE
5
15
100
AcDbSymbolTableRecord
100
AcDbLinetypeTableRecord
2
BYLAYER
70
0
0
ENDTAB
0
TABLE
2
LAYER
5
2
100
AcDbSymbolTable
70
2
0
LAYER
5
50
100
AcDbSymbolTableRecord
100
AcDbLayerTableRecord
2
0
70
0
6
CONTINUOUS
0
ENDTAB
0
TABLE
2
STYLE
5
3
100
AcDbSymbolTable
70
1
0
STYLE
5
11
100
AcDbSymbolTableRecord
100
AcDbTextStyleTableRecord
2
STANDARD
70
0
0
ENDTAB
0
TABLE
2
VIEW
5
6
100
AcDbSymbolTable
70
0
0
ENDTAB
0
TABLE
2
UCS
5
7
100
AcDbSymbolTable
70
0
0
ENDTAB
0
TABLE
2
APPID
5
9
100
AcDbSymbolTable
70
2
0
APPID
5
12
100
AcDbSymbolTableRecord
100
AcDbRegAppTableRecord
2
ACAD
70
0
0
ENDTAB
0
TABLE
2
DIMSTYLE
5
A
100
AcDbSymbolTable
70
1
0
ENDTAB
0
TABLE
2
BLOCK_RECORD
5
1
100
AcDbSymbolTable
70
1
0
BLOCK_RECORD
5
1F
100
AcDbSymbolTableRecord
100
AcDbBlockTableRecord
2
*MODEL_SPACE
0
BLOCK_RECORD
5
1B
100
AcDbSymbolTableRecord
100
AcDbBlockTableRecord
2
*PAPER_SPACE
0
ENDTAB
0
ENDSEC
0
SECTION
2
BLOCKS
0
BLOCK
5
20
100
AcDbEntity
100
AcDbBlockBegin
2
*MODEL_SPACE
0
ENDBLK
5
21
100
AcDbEntity
100
AcDbBlockEnd
0
BLOCK
5
1C
100
AcDbEntity
100
AcDbBlockBegin
2
*PAPER_SPACE
0
ENDBLK
5
1D
100
AcDbEntity
100
AcDbBlockEnd
0
ENDSEC
0
SECTION
2
ENTITIES
0
ARC
5
100
100
AcDbEntity
8
0
100
AcDbCircle
10
135.85000000001597
20
21.804178445425329
30
0
40
10
210
0
220
0
230
1
100
AcDbArc
50
90.000000000004889
51
180
0
ARC
5
101
100
AcDbEntity
8
0
100
AcDbCircle
10
135.85000000001727
20
103.80417844542534
30
0
40
10.000000000000018
210
0
220
0
230
1
100
AcDbArc
50
180
51
270.00000000000489
0
LWPOLYLINE
5
102
100
AcDbEntity
8
0
100
AcDbPolyline
90
56
70
1
43
0.0
10
68.850000000007753
20
195.80417844542745
10
120.85000000001696
20
195.80417844542745
42
-0.4142135623731793
10
125.85000000001698
20
190.80417844542603
10
125.85000000000974
20
165.80417844542745
10
110.85000000000831
20
165.80417844542745
10
110.85000000000831
20
155.80417844542743
10
125.85000000000974
20
155.80417844542743
10
125.85000000001605
20
103.80417844542083
42
0.41421356237310386
10
135.85000000001747
20
93.804178445422053
10
231.85000000001395
20
93.804178445424085
10
231.85000000001395
20
78.804178445422465
10
241.85000000001398
20
78.804178445422536
10
241.85000000001389
20
93.80417844542238
10
266.85000000001389
20
93.804178445422963
42
-0.41421356237309293
10
271.85000000001389
20
88.804178445423005
10
271.85000000001423
20
36.804178445422352
42
-0.41421356237309087
10
266.85000000001435
20
31.804178445422302
10
241.85000000001435
20
31.804178445422373
10
241.85000000001421
20
46.804178445422124
10
231.85000000001421
20
46.804178445422046
10
231.85000000001421
20
31.804178445464224
10
135.85000000001202
20
31.804178445426196
42
0.41421356237309748
10
125.85000000001288
20
21.804178445425244
10
125.85000000001598
20
-2.1958215545714799
10
110.8500000000152
20
-2.1958215545714808
10
110.8500000000152
20
-12.1958215545715
10
125.8500000000152
20
-12.195821554571499
10
125.85000000001583
20
-37.195821554571353
42
-0.41421356237309792
10
120.85000000001583
20
-42.195821554571481
10
68.850000000015299
20
-42.195821554571481
42
-0.41421356237314549
10
63.850000000015314
20
-37.195821554570621
10
63.850000000019648
20
-12.195821554571499
10
78.850000000019648
20
-12.195821554571499
10
78.850000000019648
20
-2.1958215545714799
10
63.850000000019648
20
-2.1958215545714799
10
63.850000000019634
20
21.804178445421307
42
0.41421356237309531
10
53.850000000019648
20
31.804178445421307
10
-42.149999999987116
20
31.804178445421307
10
-42.149999999987116
20
46.804178445421051
10
-52.149999999987138
20
46.804178445421051
10
-52.149999999987138
20
31.804178445421307
10
-77.149999999987131
20
31.804178445421051
42
-0.41421356237309348
10
-82.149999999987116
20
36.804178445421051
10
-82.149999999987116
20
88.804178445421712
42
-0.41421356237309503
10
-77.149999999987116
20
93.804178445421712
10
-52.149999999987138
20
93.8041784454213
10
-52.149999999987138
20
78.804178445421456
10
-42.149999999987116
20
78.804178445421456
10
-42.149999999987116
20
93.8041784454213
10
53.850000000009857
20
93.804178445426999
42
0.41421356237307866
10
63.850000000009224
20
103.80417844542697
10
63.850000000009224
20
155.80417844542743
10
78.850000000009231
20
155.80417844542743
10
78.850000000009231
20
165.80417844542745
10
63.850000000009224
20
165.80417844542745
10
63.850000000007753
20
190.80417844542717
42
-0.41421356237311169
0
LWPOLYLINE
5
103
100
AcDbEntity
8
0
100
AcDbPolyline
90
8
70
1
43
0.0
10
80.850000000013125
20
180.80417844542745
10
108.8500000000131
20
180.80417844542745
42
-0.41421356237309503
10
109.8500000000131
20
179.80417844542743
10
109.8500000000131
20
177.80417844542745
42
-0.41421356237309503
10
108.8500000000131
20
176.80417844542745
10
80.850000000013125
20
176.80417844542745
42
-0.41421356237309503
10
79.850000000013111
20
177.80417844542745
10
79.850000000013097
20
179.80417844542743
42
-0.41421356237309503
0
LWPOLYLINE
5
104
100
AcDbEntity
8
0
100
AcDbPolyline
90
8
70
1
43
0.0
10
80.850000000014319
20
-23.195821554571484
10
108.85000000001432
20
-23.195821554571484
42
-0.41421356237309503
10
109.85000000001432
20
-24.195821554571481
10
109.85000000001432
20
-26.195821554571488
42
-0.41421356237309503
10
108.85000000001432
20
-27.195821554571484
10
80.850000000014319
20
-27.195821554571484
42
-0.41421356237309503
10
79.850000000014319
20
-26.19582155457147
10
79.850000000014319
20
-24.195821554571502
42
-0.41421356237309503
0
LWPOLYLINE
5
105
100
AcDbEntity
8
0
100
AcDbPolyline
90
8
70
1
43
0.0
10
-76.649999999987116
20
85.804178445421684
10
-57.649999999987138
20
85.804178445421684
42
-0.41421356237309503
10
-56.649999999987138
20
84.804178445421684
10
-56.649999999987138
20
82.804178445421684
42
-0.41421356237309503
10
-57.649999999987138
20
81.804178445421684
10
-76.649999999987116
20
81.804178445421684
42
-0.41421356237309503
10
-77.649999999987116
20
82.804178445421684
10
-77.649999999987116
20
84.804178445421684
42
-0.41421356237309503
0
LWPOLYLINE
5
106
100
AcDbEntity
8
0
100
AcDbPolyline
90
8
70
1
43
0.0
10
-64.149999999987116
20
77.804178445435227
10
-66.149999999987131
20
77.804178445435227
42
0.41421356237309503
10
-67.149999999987116
20
76.804178445435241
10
-67.149999999987116
20
48.80417844543522
42
0.41421356237309503
10
-66.149999999987131
20
47.80417844543522
10
-64.149999999987116
20
47.80417844543522
42
0.41421356237309503
10
-63.149999999987116
20
48.80417844543522
10
-63.149999999987116
20
76.804178445435241
42
0.41421356237309503
0
LWPOLYLINE
5
107
100
AcDbEntity
8
0
100
AcDbPolyline
90
8
70
1
43
0.0
10
247.35000000001392
20
85.804178445422806
42
0.41421356237309503
10
246.35000000001389
20
84.804178445422806
10
246.35000000001395
20
82.804178445422792
42
0.41421356237309503
10
247.35000000001395
20
81.804178445422792
10
266.35000000001401
20
81.804178445422764
42
0.41421356237302737
10
267.35000000001389
20
82.804178445422778
10
267.35000000001389
20
84.804178445422949
42
0.41421356237309503
10
266.35000000001389
20
85.804178445422949
0
LWPOLYLINE
5
108
100
AcDbEntity
8
0
100
AcDbPolyline
90
8
70
1
43
0.0
10
256.85000000001395
20
76.80417844543642
10
256.85000000001418
20
48.80417844543642
42
-0.41421356237310025
10
255.85000000001418
20
47.804178445436385
10
253.85000000001415
20
47.804178445436349
42
-0.41421356237310542
10
252.85000000001418
20
48.804178445436364
10
252.85000000001395
20
76.804178445436392
42
-0.41421356237309503
10
253.85000000001398
20
77.804178445436378
10
255.85000000001395
20
77.804178445436378
42
-0.41421356237308982
0
LWPOLYLINE
5
109
100
AcDbEntity
8
0
100
AcDbPolyline
90
12
70
1
43
0.0
10
82.627255431275614
20
75.260162288360675
10
69.850000000014319
20
75.260162288360675
42
0.99999999999999989
10
69.850000000014319
20
72.260162288360675
10
76.897615824716041
20
72.260162288360675
42
-0.55518284836190412
10
78.692854242245872
20
69.378618741946212
42
1.6051035440626076
10
111.00714575778277
20
69.378618741946198
42
-0.55518284836189913
10
112.80238417531258
20
72.260162288360675
10
119.85000000001432
20
72.260162288360675
42
1.1127927103591204
10
119.85000000001432
20
75.260162288360675
10
107.072744568753
20
75.260162288360675
42
0.66206916959321638
10
105.63477461948963
20
71.870111057284817
42
-2.3575257833534411
10
84.06522538053899
20
71.870111057284817
42
0.66206916959321638
0
ENDSEC
0
SECTION
2
OBJECTS
0
DICTIONARY
5
C
100
AcDbDictionary
3
ACAD_GROUP
350
D
3
ACAD_MLINESTYLE
350
17
0
DICTIONARY
5
D
100
AcDbDictionary
0
DICTIONARY
5
1A
330
C
100
AcDbDictionary
0
DICTIONARY
5
17
100
AcDbDictionary
0
ENDSEC
0
EOF
