0
SECTION
2
HEADER
9
$INSUNITS
70
4
9
$ACADVER
1
AC1014
9
$HANDSEED
5
FFFF
0
ENDSEC
0
SECTION
2
TABLES
0
TABLE
2
VPORT
5
8
100
AcDbSymbolTable
0
ENDTAB
0
TABLE
2
LTYPE
5
5
100
AcDbSymbolTable
0
LTYPE
5
14
100
AcDbSymbolTableRecord
100
AcDbLinetypeTableRecord
2
BYBLOCK
70
0
0
LTYPE
5
15
100
AcDbSymbolTableRecord
100
AcDbLinetypeTableRecord
2
BYLAYER
70
0
0
ENDTAB
0
TABLE
2
LAYER
5
2
100
AcDbSymbolTable
70
2
0
LAYER
5
50
100
AcDbSymbolTableRecord
100
AcDbLayerTableRecord
2
0
70
0
6
CONTINUOUS
0
ENDTAB
0
TABLE
2
STYLE
5
3
100
AcDbSymbolTable
70
1
0
STYLE
5
11
100
AcDbSymbolTableRecord
100
AcDbTextStyleTableRecord
2
STANDARD
70
0
0
ENDTAB
0
TABLE
2
VIEW
5
6
100
AcDbSymbolTable
70
0
0
ENDTAB
0
TABLE
2
UCS
5
7
100
AcDbSymbolTable
70
0
0
ENDTAB
0
TABLE
2
APPID
5
9
100
AcDbSymbolTable
70
2
0
APPID
5
12
100
AcDbSymbolTableRecord
100
AcDbRegAppTableRecord
2
ACAD
70
0
0
ENDTAB
0
TABLE
2
DIMSTYLE
5
A
100
AcDbSymbolTable
70
1
0
ENDTAB
0
TABLE
2
BLOCK_RECORD
5
1
100
AcDbSymbolTable
70
1
0
BLOCK_RECORD
5
1F
100
AcDbSymbolTableRecord
100
AcDbBlockTableRecord
2
*MODEL_SPACE
0
BLOCK_RECORD
5
1B
100
AcDbSymbolTableRecord
100
AcDbBlockTableRecord
2
*PAPER_SPACE
0
ENDTAB
0
ENDSEC
0
SECTION
2
BLOCKS
0
BLOCK
5
20
100
AcDbEntity
100
AcDbBlockBegin
2
*MODEL_SPACE
0
ENDBLK
5
21
100
AcDbEntity
100
AcDbBlockEnd
0
BLOCK
5
1C
100
AcDbEntity
100
AcDbBlockBegin
2
*PAPER_SPACE
0
ENDBLK
5
1D
100
AcDbEntity
100
AcDbBlockEnd
0
ENDSEC
0
SECTION
2
ENTITIES
0
LWPOLYLINE
5
100
100
AcDbEntity
8
0
100
AcDbPolyline
90
8
70
1
43
0.0
10
-51.549999999999585
20
-57.100000000000009
42
0.41421356237310281
10
-52.549999999999585
20
-58.100000000000016
10
-52.549999999999585
20
-66.900000000000006
42
0.41421356237309503
10
-51.549999999999585
20
-67.90000000000002
10
-36.749999999999588
20
-67.90000000000002
42
0.41421356237309115
10
-35.749999999999574
20
-66.90000000000002
10
-35.749999999999574
20
-58.099999999999987
42
0.41421356237308982
10
-36.749999999999574
20
-57.100000000000009
0
LWPOLYLINE
5
101
100
AcDbEntity
8
0
100
AcDbPolyline
90
8
70
1
43
0.0
10
225.44999999999959
20
-66.900000000000006
42
0.41421356237309503
10
226.44999999999959
20
-67.90000000000002
10
241.24999999999957
20
-67.900000000000006
42
0.41421356237310542
10
242.2499999999996
20
-66.900000000000006
10
242.2499999999996
20
-58.100000000000009
42
0.41421356237309243
10
241.24999999999957
20
-57.100000000000001
10
226.44999999999959
20
-57.100000000000009
42
0.41421356237310802
10
225.44999999999959
20
-58.100000000000016
0
LINE
5
102
100
AcDbEntity
8
0
100
AcDbLine
10
9.3500000000004135
20
-139.25943611996007
30
0
11
9.3500000000004135
21
-184.49999999999989
31
0
0
LINE
5
103
100
AcDbEntity
8
0
100
AcDbLine
10
29.35000000000041
20
-204.49999999999989
30
0
11
94.850000000000435
21
-204.49999999999989
31
0
0
LINE
5
104
100
AcDbEntity
8
0
100
AcDbLine
10
94.850000000000421
20
-117.49999999999986
30
-2.627434620609032e-44
11
54.350000000000371
21
-117.49999999999987
31
-2.627434620609032e-44
0
LINE
5
105
100
AcDbEntity
8
0
100
AcDbLine
10
39.350000000000406
20
-132.49999999999989
30
-2.627434620609032e-44
11
39.350000000000421
21
-154.49999999999989
31
-2.627434620609032e-44
0
LINE
5
106
100
AcDbEntity
8
0
100
AcDbLine
10
59.350000000000414
20
-174.49999999999986
30
-2.627434620609032e-44
11
94.850000000000435
21
-174.49999999999989
31
-2.627434620609032e-44
0
ARC
5
107
100
AcDbEntity
8
0
100
AcDbCircle
10
29.350000000000396
20
-184.49999999999989
30
0
40
19.999999999999982
210
0
220
0
230
1
100
AcDbArc
50
180
51
270.00000000000006
0
ARC
5
108
100
AcDbEntity
8
0
100
AcDbCircle
10
59.350000000000392
20
-154.49999999999989
30
-2.627434620609032e-44
40
19.999999999999979
210
0
220
0
230
1
100
AcDbArc
50
180
51
270.00000000000006
0
ARC
5
109
100
AcDbEntity
8
0
100
AcDbCircle
10
54.350000000000385
20
-132.49999999999986
30
-2.627434620609032e-44
40
14.999999999999982
210
0
220
0
230
1
100
AcDbArc
50
90.000000000000057
51
180
0
LINE
5
110
100
AcDbEntity
8
0
100
AcDbLine
10
-35.431889144027622
20
-47.905667432082197
30
0
11
27.296635346912694
21
-85.37735226580935
31
0
0
LINE
5
111
100
AcDbEntity
8
0
100
AcDbLine
10
4.2862761166545029
20
-128.02242508794589
30
0
11
-55.411112932207544
21
-75.235279169616106
31
0
0
LINE
5
112
100
AcDbEntity
8
0
100
AcDbLine
10
34.989086102182533
20
-87.499999999999872
30
0
11
94.850000000000421
21
-87.499999999999872
31
0
0
LWPOLYLINE
5
113
100
AcDbEntity
8
0
100
AcDbPolyline
90
4
70
1
43
0.0
10
-22.876246924509623
20
-83.736733709648263
10
-1.3246818047781956
20
-101.49989899317745
42
1.0741723110591466
10
6.7645160108151252
20
-90.117242066949672
10
-17.098248484800113
20
-75.606264476628439
42
0.93094933625126308
0
LWPOLYLINE
5
114
100
AcDbEntity
8
0
100
AcDbPolyline
90
4
70
1
43
0.0
10
21.350000000000414
20
-125.99999999999986
10
21.350000000000414
20
-165.99999999999989
42
0.99999999999999989
10
27.350000000000414
20
-165.99999999999989
10
27.350000000000421
20
-125.99999999999986
42
0.99999999999999989
0
LWPOLYLINE
5
115
100
AcDbEntity
8
0
100
AcDbPolyline
90
4
70
1
43
0.0
10
44.600000000000428
20
-186.49999999999983
10
74.600000000000421
20
-186.49999999999983
42
-0.99999999999999989
10
74.600000000000421
20
-192.49999999999986
10
44.600000000000428
20
-192.49999999999986
42
-0.99999999999999989
0
LWPOLYLINE
5
116
100
AcDbEntity
8
0
100
AcDbPolyline
90
4
70
1
43
0.0
10
44.600000000000428
20
-99.499999999999858
42
0.99999999999999989
10
44.600000000000428
20
-105.49999999999986
10
74.600000000000421
20
-105.49999999999986
42
0.99999999999999989
10
74.600000000000421
20
-99.499999999999858
0
ARC
5
117
100
AcDbEntity
8
0
100
AcDbCircle
10
-44.149999999999572
20
-62.500000000000007
30
2.7369110631344229e-48
40
17.000000000000075
210
8.2562955194954072e-50
220
1.3821242305950493e-49
230
1
100
AcDbArc
50
59.147477479611553
51
228.51542383658543
0
ARC
5
118
100
AcDbEntity
8
0
100
AcDbCircle
10
34.989086102182583
20
-72.499999999999829
30
0
40
15.00000000000006
210
0
220
0
230
1
100
AcDbArc
50
239.14747747960925
51
269.99999999999983
0
ARC
5
119
100
AcDbEntity
8
0
100
AcDbCircle
10
-5.6499999999994976
20
-139.25943611996007
30
0
40
14.999999999999911
210
0
220
0
230
1
100
AcDbArc
50
0
51
48.515423836585647
0
ARC
5
120
100
AcDbEntity
8
0
100
AcDbCircle
10
233.85000000000042
20
-62.499999999999964
30
2.7369110631319191e-48
40
16.999999999999961
210
2.2156694166070113e-49
220
-1.898825363983931e-50
230
1
100
AcDbArc
50
-48.515423836585555
51
120.85252252038848
0
LINE
5
121
100
AcDbEntity
8
0
100
AcDbLine
10
225.13188914402846
20
-47.905667432082154
30
0
11
162.40336465308815
21
-85.37735226580935
31
0
0
LINE
5
122
100
AcDbEntity
8
0
100
AcDbLine
10
185.41372388334636
20
-128.02242508794586
30
0
11
245.11111293220836
21
-75.235279169616064
31
0
0
ARC
5
123
100
AcDbEntity
8
0
100
AcDbCircle
10
154.71091389781827
20
-72.499999999999815
30
0
40
15.000000000000044
210
0
220
0
230
1
100
AcDbArc
50
270.00000000000011
51
300.85252252039066
0
LINE
5
124
100
AcDbEntity
8
0
100
AcDbLine
10
154.7109138978183
20
-87.499999999999858
30
0
11
94.850000000000421
21
-87.499999999999858
31
0
0
LWPOLYLINE
5
125
100
AcDbEntity
8
0
100
AcDbPolyline
90
4
70
1
43
0.0
10
212.57624692451046
20
-83.736733709648234
42
0.93094933625126497
10
206.79824848480095
20
-75.606264476628425
10
182.93548398918574
20
-90.117242066949643
42
1.0741723110591503
10
191.02468180477902
20
-101.49989899317742
0
LWPOLYLINE
5
126
100
AcDbEntity
8
0
100
AcDbPolyline
90
4
70
1
43
0.0
10
145.10000000000042
20
-105.49999999999986
42
0.99999999999999989
10
145.10000000000042
20
-99.499999999999858
10
115.10000000000041
20
-99.499999999999858
42
0.99999999999999989
10
115.10000000000041
20
-105.49999999999986
0
LINE
5
127
100
AcDbEntity
8
0
100
AcDbLine
10
94.850000000000421
20
-117.49999999999986
30
-2.627434620609032e-44
11
135.35000000000048
21
-117.49999999999986
31
-2.627434620609032e-44
0
ARC
5
128
100
AcDbEntity
8
0
100
AcDbCircle
10
135.35000000000048
20
-132.49999999999986
30
-2.627434620609032e-44
40
15
210
0
220
0
230
1
100
AcDbArc
50
0
51
90
0
ARC
5
129
100
AcDbEntity
8
0
100
AcDbCircle
10
195.35000000000031
20
-139.25943611996001
30
0
40
14.999999999999858
210
0
220
0
230
1
100
AcDbArc
50
131.48457616341429
51
180
0
LINE
5
130
100
AcDbEntity
8
0
100
AcDbLine
10
180.35000000000042
20
-139.25943611996004
30
0
11
180.35000000000048
21
-184.49999999999986
31
0
0
LWPOLYLINE
5
131
100
AcDbEntity
8
0
100
AcDbPolyline
90
4
70
1
43
0.0
10
168.35000000000042
20
-125.99999999999983
10
168.35000000000048
20
-165.99999999999983
42
-0.99999999999999989
10
162.35000000000045
20
-165.99999999999983
10
162.35000000000048
20
-125.99999999999983
42
-0.99999999999999989
0
LINE
5
132
100
AcDbEntity
8
0
100
AcDbLine
10
150.35000000000048
20
-132.49999999999986
30
-2.627434620609032e-44
11
150.35000000000045
21
-154.49999999999986
31
-2.627434620609032e-44
0
ARC
5
133
100
AcDbEntity
8
0
100
AcDbCircle
10
130.35000000000048
20
-154.49999999999989
30
-2.627434620609032e-44
40
19.999999999999964
210
0
220
0
230
1
100
AcDbArc
50
-90
51
0
0
LINE
5
134
100
AcDbEntity
8
0
100
AcDbLine
10
130.35000000000048
20
-174.49999999999986
30
-2.627434620609032e-44
11
94.850000000000421
21
-174.49999999999989
31
-2.627434620609032e-44
0
ARC
5
135
100
AcDbEntity
8
0
100
AcDbCircle
10
160.35000000000048
20
-184.49999999999986
30
0
40
20
210
0
220
0
230
1
100
AcDbArc
50
-90
51
0
0
LINE
5
136
100
AcDbEntity
8
0
100
AcDbLine
10
160.35000000000048
20
-204.49999999999986
30
0
11
94.850000000000435
21
-204.49999999999989
31
0
0
LWPOLYLINE
5
137
100
AcDbEntity
8
0
100
AcDbPolyline
90
4
70
1
43
0.0
10
145.10000000000045
20
-192.49999999999986
42
0.99999999999999989
10
145.10000000000045
20
-186.49999999999983
10
115.10000000000045
20
-186.49999999999983
42
0.99999999999999989
10
115.10000000000045
20
-192.49999999999986
0
CIRCLE
5
138
100
AcDbEntity
8
0
100
AcDbCircle
10
94.850000000000421
20
-102.49999999999986
30
0
40
2
210
0
220
0
230
1
0
CIRCLE
5
139
100
AcDbEntity
8
0
100
AcDbCircle
10
24.350000000000414
20
-102.49999999999986
30
2.4651903288156647e-30
40
2
210
0
220
0
230
1
0
CIRCLE
5
140
100
AcDbEntity
8
0
100
AcDbCircle
10
165.35000000000042
20
-102.49999999999986
30
2.4651903288156647e-30
40
2
210
0
220
0
230
1
0
CIRCLE
5
141
100
AcDbEntity
8
0
100
AcDbCircle
10
165.35000000000048
20
-189.49999999999983
30
2.4651903288156647e-30
40
2
210
0
220
0
230
1
0
CIRCLE
5
142
100
AcDbEntity
8
0
100
AcDbCircle
10
94.850000000000435
20
-189.49999999999986
30
-2.627434620609032e-44
40
2
210
0
220
0
230
1
0
CIRCLE
5
143
100
AcDbEntity
8
0
100
AcDbCircle
10
24.350000000000414
20
-189.49999999999986
30
2.4651903288156647e-30
40
2
210
0
220
0
230
1
0
ENDSEC
0
SECTION
2
OBJECTS
0
DICTIONARY
5
C
100
AcDbDictionary
3
ACAD_GROUP
350
D
3
ACAD_MLINESTYLE
350
17
0
DICTIONARY
5
D
100
AcDbDictionary
0
DICTIONARY
5
1A
330
C
100
AcDbDictionary
0
DICTIONARY
5
17
100
AcDbDictionary
0
ENDSEC
0
EOF
